<svg width="390" height="119" viewBox="0 0 390 119" fill="none" xmlns="http://www.w3.org/2000/svg">
<g filter="url(#filter0_dd_14_1221)">
<path d="M150.156 105.126V91.8738H151.958V105.126C151.958 106.989 151.657 108.313 151.057 109.099C150.457 109.885 149.389 110.278 147.856 110.278C147.602 110.278 147.114 110.246 146.393 110.186V108.355C147.083 108.415 147.533 108.447 147.744 108.447C148.72 108.447 149.367 108.214 149.683 107.748C150 107.283 150.156 106.408 150.156 105.126Z" fill="white"/>
<path d="M156.264 102.429V95.1941H157.842V102.429C157.842 104.322 158.646 105.267 160.253 105.267C161.95 105.267 162.981 104.184 163.341 102.016V95.1941H164.92V106.665H163.702L163.341 105.061C162.741 106.267 161.71 106.87 160.253 106.87C158.796 106.87 157.842 106.52 157.211 105.816C156.58 105.115 156.264 103.985 156.264 102.429Z" fill="white"/>
<path d="M171.25 106.64L167.419 95.1919H169.087L172.378 105.289L175.646 95.1919H177.315L173.483 106.64H171.252H171.25Z" fill="white"/>
<path d="M180.051 105.461C179.218 104.523 178.801 103.007 178.801 100.917C178.801 98.8272 179.188 97.3088 179.961 96.362C180.735 95.4153 181.955 94.9419 183.623 94.9419C185.292 94.9419 186.512 95.3617 187.285 96.2013C188.059 97.0409 188.446 98.3851 188.446 100.232V101.652H180.513C180.588 102.902 180.907 103.82 181.471 104.398C182.034 104.979 182.887 105.269 184.03 105.269C185.081 105.269 186.155 104.887 187.252 104.124L187.659 105.727C186.773 106.491 185.562 106.872 184.03 106.872C182.212 106.872 180.887 106.404 180.051 105.463V105.461ZM180.513 100.183H186.756C186.756 98.9009 186.507 97.9742 186.013 97.4004C185.516 96.8287 184.72 96.5407 183.623 96.5407C182.617 96.5407 181.86 96.831 181.357 97.4115C180.854 97.9921 180.572 98.9143 180.513 100.183Z" fill="white"/>
<path d="M191.512 95.1942H192.729L193.09 96.7506C193.69 95.5448 194.721 94.9419 196.178 94.9419C197.635 94.9419 198.589 95.2925 199.22 95.9958C199.851 96.697 200.168 97.8268 200.168 99.3832V106.64H198.589V99.3832C198.589 97.4897 197.785 96.5451 196.178 96.5451C194.479 96.5451 193.45 97.6281 193.09 99.7963V106.642H191.512V95.1942Z" fill="white"/>
<path d="M202.804 95.5604L204.358 95.1942V91.8069H205.936V95.1942H208.64V96.6814H205.936V103.206C205.936 103.97 206.063 104.519 206.318 104.854C206.573 105.189 206.995 105.359 207.58 105.359C207.971 105.359 208.512 105.276 209.202 105.106L209.248 106.618C208.468 106.785 207.822 106.87 207.31 106.87C206.272 106.87 205.521 106.576 205.057 105.988C204.591 105.401 204.358 104.474 204.358 103.206V96.6814H202.804V95.5604Z" fill="white"/>
<path d="M211.842 102.429V95.1941H213.42V102.429C213.42 104.322 214.224 105.267 215.831 105.267C217.528 105.267 218.559 104.184 218.92 102.016V95.1941H220.498V106.665H219.28L218.92 105.061C218.319 106.267 217.289 106.87 215.831 106.87C214.374 106.87 213.42 106.52 212.789 105.816C212.158 105.115 211.842 103.985 211.842 102.429Z" fill="white"/>
<path d="M228.384 94.942C229.901 94.942 230.96 95.5002 231.562 96.6122V91.1169H233.163L233.185 106.64H231.967L231.606 105.245C230.929 106.328 229.857 106.87 228.384 106.87C226.716 106.87 225.496 106.397 224.722 105.45C223.948 104.503 223.562 102.994 223.562 100.917C223.562 98.8407 223.948 97.3089 224.722 96.3621C225.496 95.4153 226.716 94.942 228.384 94.942ZM225.252 100.917C225.252 102.445 225.496 103.55 225.984 104.238C226.472 104.925 227.272 105.267 228.384 105.267C230.112 105.267 231.178 104.336 231.584 102.474V99.3141C231.165 97.4674 230.096 96.543 228.384 96.543C227.287 96.543 226.492 96.8869 225.995 97.5724C225.498 98.2601 225.252 99.3743 225.252 100.915V100.917Z" fill="white"/>
<path d="M228.615 76.0646C230.061 76.0646 231.072 76.596 231.644 77.6589V72.4182H233.169L233.191 87.2204H232.031L231.688 85.8895C231.044 86.9234 230.019 87.4392 228.615 87.4392C227.024 87.4392 225.861 86.9881 225.122 86.086C224.384 85.1839 224.017 83.7437 224.017 81.7631C224.017 79.7824 224.386 78.3221 225.122 77.42C225.861 76.5179 227.024 76.0668 228.615 76.0668V76.0646ZM225.628 81.7631C225.628 83.2189 225.861 84.2729 226.327 84.9294C226.793 85.5836 227.555 85.9119 228.615 85.9119C230.261 85.9119 231.279 85.0231 231.666 83.248V80.2357C231.264 78.4762 230.248 77.5942 228.615 77.5942C227.569 77.5942 226.81 77.9224 226.338 78.5767C225.865 79.2309 225.628 80.2938 225.628 81.7631Z" fill="white"/>
<path d="M237.5 105.461C236.667 104.523 236.249 103.007 236.249 100.917C236.249 98.8272 236.636 97.3088 237.41 96.362C238.183 95.4153 239.403 94.9419 241.072 94.9419C242.74 94.9419 243.96 95.3617 244.734 96.2013C245.507 97.0409 245.894 98.3851 245.894 100.232V101.652H237.961C238.036 102.902 238.355 103.82 238.92 104.398C239.482 104.979 240.335 105.269 241.478 105.269C242.529 105.269 243.604 104.887 244.701 104.124L245.105 105.727C244.219 106.491 243.008 106.872 241.476 106.872C239.658 106.872 238.333 106.404 237.498 105.463L237.5 105.461ZM237.961 100.183H244.204C244.204 98.9009 243.955 97.9742 243.461 97.4004C242.964 96.8287 242.168 96.5407 241.072 96.5407C240.065 96.5407 239.309 96.831 238.805 97.4115C238.302 97.9921 238.021 98.9143 237.959 100.183H237.961Z" fill="white"/>
<path d="M150.116 87.2226V71.6233H155.064C156.954 71.6233 158.337 71.9984 159.212 72.7509C160.087 73.5012 160.524 74.7382 160.524 76.4554C160.524 77.8286 160.254 78.8848 159.713 79.6284C159.172 80.3719 158.319 80.8676 157.154 81.1133L160.269 87.2226H158.306L155.385 81.2852H151.822V87.2226H150.116ZM154.959 73.2489H151.824V79.6619H154.959C156.282 79.6619 157.238 79.4162 157.827 78.925C158.416 78.4337 158.713 77.612 158.713 76.4554C158.713 75.2987 158.418 74.477 157.827 73.9857C157.238 73.4945 156.282 73.2489 154.959 73.2489Z" fill="white"/>
<path d="M164.159 86.1061C163.37 85.2174 162.977 83.7838 162.977 81.8054C162.977 79.8271 163.341 78.389 164.076 77.4936C164.808 76.5982 165.964 76.1494 167.542 76.1494C169.12 76.1494 170.274 76.5469 171.008 77.3418C171.74 78.1367 172.107 79.4073 172.107 81.1557V82.4999H164.601C164.671 83.6856 164.975 84.552 165.507 85.099C166.041 85.6483 166.847 85.923 167.927 85.923C168.922 85.923 169.938 85.5612 170.977 84.84L171.362 86.3562C170.522 87.0796 169.379 87.4391 167.929 87.4391C166.208 87.4391 164.953 86.9948 164.164 86.1061H164.159ZM164.597 81.111H170.505C170.505 79.8985 170.27 79.021 169.802 78.4784C169.333 77.9358 168.579 77.6656 167.542 77.6656C166.59 77.6656 165.876 77.9402 165.399 78.4895C164.922 79.0388 164.656 79.9119 164.599 81.111H164.597Z" fill="white"/>
<path d="M178.972 87.4393C177.267 87.4393 176.016 86.9905 175.218 86.095C174.422 85.1996 174.024 83.7706 174.024 81.8056C174.024 79.8406 174.422 78.4115 175.218 77.5161C176.014 76.6207 177.264 76.1719 178.972 76.1719C180.423 76.1719 181.566 76.5336 182.406 77.2549L182.021 78.7933C181.467 78.3892 180.983 78.1034 180.57 77.9381C180.157 77.7729 179.625 77.688 178.97 77.688C177.79 77.688 176.937 78.0096 176.412 78.6527C175.886 79.2958 175.622 80.3452 175.622 81.8056C175.622 83.2659 175.888 84.2975 176.422 84.9473C176.957 85.5971 177.805 85.9231 178.97 85.9231C179.425 85.9231 179.84 85.8718 180.219 85.7713C180.594 85.6708 180.893 85.5547 181.115 85.4252C181.335 85.2957 181.638 85.1014 182.021 84.8401L182.406 86.3563C181.566 87.0798 180.423 87.4393 178.972 87.4393Z" fill="white"/>
<path d="M186.778 87.2226H185.285V76.3906H186.479L186.778 78.1881C187.417 76.8595 188.42 76.1941 189.785 76.1941C190.211 76.1941 190.681 76.2588 191.191 76.3884L190.956 77.9269C190.501 77.8107 190.097 77.7527 189.741 77.7527C188.149 77.7527 187.16 78.9652 186.775 81.3924V87.2203L186.778 87.2226Z" fill="white"/>
<path d="M193.974 86.1061C193.184 85.2174 192.791 83.7838 192.791 81.8054C192.791 79.8271 193.156 78.389 193.89 77.4936C194.622 76.5982 195.778 76.1494 197.356 76.1494C198.935 76.1494 200.089 76.5469 200.823 77.3418C201.555 78.1367 201.922 79.4073 201.922 81.1557V82.4999H194.415C194.486 83.6856 194.789 84.552 195.321 85.099C195.855 85.6483 196.662 85.923 197.741 85.923C198.737 85.923 199.752 85.5612 200.792 84.84L201.177 86.3562C200.337 87.0796 199.194 87.4391 197.743 87.4391C196.022 87.4391 194.767 86.9948 193.978 86.1061H193.974ZM194.411 81.111H200.319C200.319 79.8985 200.084 79.021 199.616 78.4784C199.148 77.9358 198.394 77.6656 197.356 77.6656C196.405 77.6656 195.69 77.9402 195.213 78.4895C194.736 79.0388 194.47 79.9119 194.413 81.111H194.411Z" fill="white"/>
<path d="M209.591 77.4936C210.323 76.5982 211.479 76.1494 213.057 76.1494C214.636 76.1494 215.794 76.6005 216.535 77.5048C217.273 78.4069 217.645 79.8405 217.645 81.8054C217.645 83.7704 217.278 85.1995 216.546 86.0949C215.814 86.9903 214.651 87.4391 213.059 87.4391C211.468 87.4391 210.308 86.9948 209.582 86.1061C208.857 85.2174 208.494 83.7838 208.494 81.8054C208.494 79.8271 208.859 78.389 209.593 77.4936H209.591ZM210.092 81.8054C210.092 83.2501 210.323 84.2974 210.785 84.9472C211.246 85.597 212.004 85.923 213.055 85.923C214.106 85.923 214.847 85.6014 215.315 84.9583C215.783 84.3153 216.025 83.2658 216.04 81.8054C216.025 80.3473 215.785 79.2912 215.315 78.6414C214.847 77.9916 214.093 77.6656 213.055 77.6656C212.018 77.6656 211.246 77.9916 210.785 78.6414C210.323 79.2912 210.092 80.3451 210.092 81.8054Z" fill="white"/>
<path d="M237.062 84.0585C237.062 82.2253 238.348 81.1334 240.922 80.7873C242.074 80.6577 242.969 80.5774 243.611 80.5483V79.7891C243.624 79.0389 243.45 78.4963 243.087 78.1636C242.725 77.8309 242.116 77.6656 241.263 77.6656C240.795 77.6656 240.313 77.7549 239.823 77.9358C239.333 78.1167 238.966 78.2998 238.724 78.4873L238.34 78.7687L237.827 77.2525C237.942 77.1654 238.1 77.0605 238.307 76.9377C238.513 76.8149 238.915 76.6519 239.511 76.4509C240.109 76.2477 240.691 76.1472 241.261 76.1472C242.626 76.1472 243.606 76.433 244.204 77.0024C244.802 77.5741 245.101 78.5007 245.101 79.7869V87.2181H243.907L243.652 85.9833C242.927 86.9502 241.931 87.4347 240.667 87.4347C239.403 87.4347 238.537 87.1601 237.948 86.6108C237.359 86.0615 237.062 85.2107 237.062 84.054V84.0585ZM238.663 84.0585C238.663 85.4452 239.331 86.1374 240.667 86.1374C241.463 86.1374 242.158 85.8493 242.747 85.271C243.336 84.6927 243.624 84.0518 243.611 83.344V81.8479C242.643 81.9216 241.749 82.0154 240.922 82.1293C239.414 82.3459 238.66 82.9889 238.66 84.0585H238.663Z" fill="white"/>
<path d="M193.068 7.6586H204.417C204.445 7.6586 204.467 7.64744 204.487 7.62734C204.507 7.60724 204.516 7.58045 204.513 7.55142C204.311 3.79339 201.247 0.848145 197.539 0.848145H186.19C186.164 0.848145 186.14 0.859309 186.122 0.879406C186.103 0.899502 186.094 0.926297 186.094 0.955325C186.296 4.71559 189.36 7.6586 193.07 7.6586" fill="white"/>
<path d="M222.05 60.3291C220.061 57.692 219.091 53.7643 218.144 50.5288C216.847 46.0942 214.629 42.7001 213.15 40.6704C213.003 40.4672 213.047 40.1858 213.242 40.0317C213.849 39.5561 214.423 39.0358 214.95 38.4888C217.777 35.5569 219.461 32.3058 219.689 28.224C219.953 23.5102 218.359 19.0421 215.203 15.6481C211.998 12.2026 207.62 10.3069 202.872 10.3069H173.172C173.143 10.3069 173.119 10.3158 173.102 10.3359C173.084 10.356 173.075 10.3828 173.075 10.4141C173.271 14.0671 176.135 16.9454 179.733 17.1106C180.069 17.1263 180.333 17.4032 180.333 17.7448V54.9768C180.333 55.9771 180.953 56.8636 181.876 57.2142C182.808 57.567 183.705 57.7211 184.364 57.7211C184.837 57.7211 185.318 57.6563 185.793 57.529C186.039 57.462 186.277 57.3772 186.51 57.2812C186.571 57.2566 186.833 57.0936 186.886 57.0222C186.982 56.8949 187.037 56.7363 187.037 56.5711V50.1715C187.037 41.9878 189.286 38.8684 190.246 37.5375L190.33 37.4214C190.468 37.2272 190.526 37.0552 190.501 36.9079C190.477 36.7694 190.376 36.6377 190.202 36.5171C188.149 35.1036 187.037 33.132 187.037 26.7592V17.756C187.037 17.4032 187.321 17.1151 187.668 17.1151H203.039C204.789 17.1151 206.514 17.5863 208.026 18.475C211.102 20.2836 213.012 23.6442 213.012 27.2482C213.012 30.8521 211.102 33.6009 208.026 35.4096C206.899 36.0727 205.672 36.4992 204.384 36.6779C204.292 36.6913 204.217 36.7538 204.184 36.8453C204.151 36.9391 204.171 37.0374 204.239 37.1088C205.721 38.7121 206.725 42.1396 207.308 44.2207C207.789 45.9468 208.448 48.202 208.719 48.8831C209.627 51.1719 210.708 53.3155 211.935 55.2581C213.568 57.8416 215.41 59.992 217.412 61.651C219.012 62.9439 220.681 63.9286 222.371 64.5717L222.841 64.7526C223.907 65.1634 225.009 65.5899 226.323 65.8423L226.411 65.8601C226.776 65.9316 227.325 66.0387 227.666 66.0387C228.519 66.0387 225.035 64.2859 222.05 60.3291Z" fill="white"/>
<path d="M200.865 19.9106H193.787C193.75 19.9106 193.721 19.9419 193.721 19.9776V44.8012C193.721 44.8012 193.708 48.95 193.708 49.2894C193.708 54.6172 190.591 58.8039 186.424 59.9249C185.762 60.1013 185.077 60.1995 184.371 60.1995C180.003 60.1995 171.616 56.0552 176.247 44.5779C176.355 44.3099 176.414 44.004 175.902 44.004C171.774 44.004 165.87 52.3976 171.345 59.5966C174.332 63.5244 179.045 66.0141 184.305 66.0342C185.331 66.0275 186.347 65.9315 187.34 65.7439C189.369 65.3554 191.392 64.5426 193.183 63.3971C194.089 62.8143 194.941 62.1466 195.722 61.412C196.458 60.7153 197.126 59.9606 197.72 59.1701C198.636 57.9041 199.384 56.5062 199.927 55.0057C200.582 53.1189 200.92 51.1383 200.931 49.0951C200.931 49.0594 200.933 49.0259 200.933 48.9902V19.9776C200.933 19.9397 200.905 19.9106 200.867 19.9106" fill="white"/>
<path d="M204.424 74.631V72.8669H205.866V74.631H204.424ZM204.424 87.2225V76.7612H205.866V87.2225H204.424Z" fill="white"/>
</g>
<defs>
<filter id="filter0_dd_14_1221" x="130.956" y="0.848145" width="129.231" height="117.429" filterUnits="userSpaceOnUse" color-interpolation-filters="sRGB">
<feFlood flood-opacity="0" result="BackgroundImageFix"/>
<feColorMatrix in="SourceAlpha" type="matrix" values="0 0 0 0 0 0 0 0 0 0 0 0 0 0 0 0 0 0 127 0" result="hardAlpha"/>
<feOffset dy="2"/>
<feGaussianBlur stdDeviation="1"/>
<feComposite in2="hardAlpha" operator="out"/>
<feColorMatrix type="matrix" values="0 0 0 0 0 0 0 0 0 0 0 0 0 0 0 0 0 0 0.25 0"/>
<feBlend mode="normal" in2="BackgroundImageFix" result="effect1_dropShadow_14_1221"/>
<feColorMatrix in="SourceAlpha" type="matrix" values="0 0 0 0 0 0 0 0 0 0 0 0 0 0 0 0 0 0 127 0" result="hardAlpha"/>
<feOffset dy="4"/>
<feGaussianBlur stdDeviation="2"/>
<feComposite in2="hardAlpha" operator="out"/>
<feColorMatrix type="matrix" values="0 0 0 0 0 0 0 0 0 0 0 0 0 0 0 0 0 0 0.25 0"/>
<feBlend mode="normal" in2="effect1_dropShadow_14_1221" result="effect2_dropShadow_14_1221"/>
<feBlend mode="normal" in="SourceGraphic" in2="effect2_dropShadow_14_1221" result="shape"/>
</filter>
</defs>
</svg>
